<svg xmlns="http://www.w3.org/2000/svg" xmlns:xlink="http://www.w3.org/1999/xlink" width="32" height="32" viewBox="0 0 32 32">
  <defs>
    <clipPath id="clip-favicon">
      <rect width="32" height="32"/>
    </clipPath>
  </defs>
  <g id="favicon" clip-path="url(#clip-favicon)">
    <path id="logo" d="M-956,341l-3-1v-6l5,3,5-3v6l-3,1a4.006,4.006,0,0,1-2,.528A4.006,4.006,0,0,1-956,341Zm13-20c0-.653-.435-1.327-1-1l-10,5-9-5c-.566-.328-1,.346-1,1v15l-2-1a3.353,3.353,0,0,1-2-3V320a3.354,3.354,0,0,1,2-3l10-6a4.054,4.054,0,0,1,4,0l11,6a3.352,3.352,0,0,1,2,3v12a3.351,3.351,0,0,1-2,3l-2,1Z" transform="translate(970 -310)" fill="#44c9f6" stroke="rgba(0,0,0,0)" stroke-miterlimit="10" stroke-width="1"/>
  </g>
</svg>
